<svg width="71" height="93" viewBox="0 0 71 93" fill="none" xmlns="http://www.w3.org/2000/svg">
<path d="M6.37146 83.1359L0 0H70.035L63.6551 83.1227L34.975 92.3696L6.37146 83.1359Z" fill="#1572B6"/>
<path d="M35.0175 85.0773L58.2633 77.6737L63.7319 7.29242H35.0175V85.0773Z" fill="#33A9DC"/>
<path d="M35.0175 36.813H46.8449L47.6603 26.3872H35.0175V16.2052H57.4287L57.2147 18.936L55.0199 46.9951H35.0175V36.813Z" fill="white"/>
<path d="M35.0175 63.0781L34.9785 63.0913L25.3773 60.0138L24.7636 51.8566H16.1081L17.3159 67.9161L34.9757 73.7336L35.0175 73.7204V63.0781Z" fill="#EBEBEB"/>
<path d="M46.2263 46.1848L45.1344 59.9476L35.0175 63.04V73.7336L53.6136 67.8947L53.7516 66.159L55.3277 46.1848H46.2263Z" fill="white"/>
<path d="M35.0175 16.2052V26.3872H14.0833L13.9095 24.0978L13.5141 18.936L13.3067 16.2052H35.0175ZM34.9867 36.813V46.9951H25.4561L25.2823 44.7057L24.8897 39.5438L24.6822 36.813H34.9867Z" fill="#EBEBEB"/>
</svg>
