<svg width="81" height="81" viewBox="0 0 81 81" fill="none" xmlns="http://www.w3.org/2000/svg">
<g clip-path="url(#clip0_33_164)">
<path d="M72.1406 0H8.85938C3.96648 0 0 3.96648 0 8.85938V72.1406C0 77.0335 3.96648 81 8.85938 81H72.1406C77.0335 81 81 77.0335 81 72.1406V8.85938C81 3.96648 77.0335 0 72.1406 0Z" fill="#092E20"/>
<path d="M58.9708 29.8048V50.7592C58.9708 57.9796 58.4425 61.4423 56.8579 64.4358C55.3901 67.3126 53.453 69.1319 49.4619 71.1278L41.0676 67.1364C45.0594 65.2582 46.9965 63.6148 48.2289 61.0898C49.5204 58.5076 49.9318 55.5138 49.9318 47.6486V29.8048H58.9708ZM44.5905 15.845V57.6862C39.9536 58.5665 36.549 58.9187 32.8512 58.9187C21.8159 58.9187 16.0636 53.9299 16.0636 44.3617C16.0636 35.1461 22.1684 29.1594 31.6182 29.1594C33.0857 29.1594 34.201 29.2764 35.5511 29.6286V15.8456L44.5905 15.845ZM32.499 36.4374C27.9206 36.4374 25.279 39.255 25.279 44.1852C25.279 48.999 27.8033 51.64 32.4405 51.64C33.4378 51.64 34.2598 51.5815 35.5511 51.4059V36.9066C34.4946 36.5547 33.6144 36.4374 32.499 36.4374ZM58.9708 15.8931V25.1676H49.9318V15.8934L58.9708 15.8931Z" fill="#FFFFFD"/>
</g>
<defs>
<clipPath id="clip0_33_164">
<rect width="81" height="81" fill="white"/>
</clipPath>
</defs>
</svg>
