<svg width="70" height="92" viewBox="0 0 70 92" fill="none" xmlns="http://www.w3.org/2000/svg">
<path d="M6.35544 82.1695L0 0H69.8335L63.4696 82.1565L34.8743 91.2958L6.35544 82.1695Z" fill="#E44F26"/>
<path d="M34.9167 84.8324L58.0956 77.3732L63.5485 6.46344H34.9167V84.8324Z" fill="#F1662A"/>
<path d="M34.9168 37.4694H23.492L22.7043 27.0967H34.9168V16.9665H13.2684L13.4751 19.6867L15.5952 47.5996H34.9168V37.4694ZM34.9168 63.7764L34.8776 63.7895L25.263 60.7449L24.6484 52.6663H15.9807L17.1902 68.5678L34.8776 74.3293L34.9168 74.3162V63.7764Z" fill="#EBEBEB"/>
<path d="M34.9167 37.4705V47.6013H45.5578L44.5569 60.7408L34.9167 63.7889V74.3293L52.6341 68.5708L52.7628 66.8599L54.7925 40.1909L55.005 37.4705H52.6761H34.9167ZM34.9167 16.9665V27.0973H55.7907L55.964 24.8227L56.3582 19.6868L56.5651 16.9665H34.9167Z" fill="white"/>
</svg>
