<svg width="77" height="80" viewBox="0 0 77 80" fill="none" xmlns="http://www.w3.org/2000/svg">
<g clip-path="url(#clip0_33_167)">
<path d="M76.4544 47.3386C75.9942 45.9465 74.7887 44.9769 73.2297 44.7442C72.4945 44.6346 71.6526 44.6813 70.6564 44.8864C68.9199 45.2443 67.6316 45.3805 66.6914 45.4069C70.2402 39.4224 73.1259 32.598 74.7872 26.1739C77.4735 15.7863 76.038 11.0541 74.3605 8.91368C69.9212 3.24811 63.4444 0.204514 55.6307 0.111386C51.4624 0.0604794 47.8032 0.882466 45.8943 1.47358C44.117 1.16035 42.206 0.985476 40.2009 0.953136C36.4421 0.893246 33.1211 1.71164 30.2834 3.39364C28.7124 2.86302 26.191 2.115 23.2792 1.63767C16.4309 0.514743 10.9113 1.38973 6.87408 4.23839C1.98535 7.68743 -0.280932 13.68 0.138205 22.0496C0.271322 24.7069 1.75959 32.792 4.10292 40.4597C5.44967 44.867 6.88577 48.5268 8.37134 51.3386C10.4781 55.3258 12.7324 57.6738 15.2631 58.517C16.6815 58.989 19.2587 59.3195 21.9693 57.0647C22.3129 57.4803 22.7713 57.8933 23.3796 58.2769C24.1522 58.7635 25.097 59.1611 26.0405 59.3968C29.4406 60.2457 32.6255 60.0334 35.3427 58.8434C35.3595 59.3261 35.3724 59.7873 35.3832 60.1856C35.4012 60.8315 35.4192 61.4648 35.4429 62.0571C35.6039 66.0619 35.8767 69.1759 36.685 71.3547C36.7294 71.4745 36.789 71.6571 36.852 71.8509C37.2552 73.084 37.9295 75.1484 39.645 76.7651C41.4214 78.4399 43.5702 78.9535 45.5381 78.9535C46.5251 78.9535 47.4668 78.8241 48.2928 78.6475C51.237 78.0171 54.5808 77.0571 56.9996 73.617C59.2866 70.365 60.3983 65.4669 60.5995 57.7492C60.6256 57.5309 60.6496 57.3225 60.6726 57.124L60.7206 56.7161L61.2594 56.7635L61.3982 56.7727C64.3969 56.9093 68.0636 56.2742 70.3155 55.2294C72.0949 54.4047 77.797 51.3979 76.4544 47.3386Z" fill="black"/>
<path d="M71.3271 48.128C62.4107 49.9651 61.7975 46.95 61.7975 46.95C71.2116 32.9978 75.1473 15.2875 71.7513 10.9529C62.4859 -0.870777 46.4475 4.72113 46.1797 4.86606L46.0937 4.88163C44.332 4.5163 42.3607 4.2989 40.1448 4.26267C36.1105 4.19679 33.0501 5.31912 30.7277 7.07808C30.7277 7.07808 2.11666 -4.69444 3.44753 21.884C3.73055 27.5382 11.5616 64.6671 20.902 53.4525C24.3159 49.3515 27.6148 45.8842 27.6148 45.8842C29.2529 46.9712 31.2143 47.5258 33.2704 47.3267L33.4302 47.1913C33.3805 47.7004 33.4032 48.1984 33.4941 48.788C31.0878 51.4731 31.795 51.9445 26.9849 52.9335C22.1174 53.9355 24.9767 55.719 26.8437 56.1856C29.1069 56.7506 34.3429 57.5513 37.8806 52.6047L37.7397 53.1692C38.6823 53.9235 39.3443 58.0751 39.2334 61.8388C39.1225 65.6023 39.0484 68.1862 39.791 70.2045C40.5343 72.2228 41.2745 76.764 47.5981 75.4108C52.8817 74.2797 55.6199 71.349 56.001 66.4602C56.2711 62.9848 56.883 63.4987 56.9214 60.3913L57.4122 58.9204C57.9779 54.2092 57.5021 52.6892 60.7572 53.3962L61.5487 53.4657C63.9442 53.5744 67.0802 53.0806 68.9208 52.2262C72.8837 50.3894 75.2342 47.3222 71.3265 48.128H71.3271Z" fill="#336791"/>
<path d="M32.4025 24.4125C31.599 24.3009 30.8713 24.4042 30.5032 24.6826C30.2963 24.8393 30.2321 25.0207 30.2147 25.1456C30.1686 25.4765 30.4006 25.8424 30.5433 26.0311C30.9469 26.5653 31.5363 26.9324 32.1198 27.0133C32.2043 27.0252 32.2885 27.0306 32.3722 27.0306C33.3451 27.0306 34.2298 26.2739 34.3078 25.7154C34.4052 25.0159 33.3886 24.5494 32.4025 24.4125ZM59.021 24.4347C58.9442 23.8864 57.9674 23.7301 57.0404 23.8589C56.1146 23.9876 55.217 24.4051 55.2919 24.9545C55.3519 25.3819 56.1245 26.1113 57.0389 26.1113C57.1163 26.1113 57.1942 26.1062 57.2728 26.0951C57.8832 26.0107 58.3311 25.6235 58.544 25.4004C58.8678 25.0603 59.0555 24.6812 59.021 24.4347Z" fill="white"/>
<path d="M74.294 47.9192C73.954 46.8924 72.8597 46.5621 71.0417 46.937C65.6436 48.0498 63.7104 47.279 63.0757 46.8122C67.2715 40.4279 70.7233 32.7105 72.5854 25.5103C73.4674 22.0996 73.9546 18.932 73.9945 16.3502C74.0386 13.5165 73.5553 11.4341 72.5587 10.1621C68.5406 5.03401 62.6433 2.28328 55.5048 2.20781C50.5972 2.15272 46.4508 3.40711 45.647 3.75986C43.9542 3.33943 42.1089 3.08131 40.0999 3.04837C36.4158 2.98878 33.2312 3.86975 30.5946 5.66555C29.4493 5.23973 26.4896 4.2249 22.87 3.64247C16.6123 2.63633 11.6396 3.39872 8.09103 5.9096C3.85679 8.90588 1.90201 14.2618 2.28067 21.8283C2.40809 24.3739 3.86038 32.2051 6.15215 39.7048C9.16886 49.5758 12.4482 55.1638 15.8984 56.3134C16.3023 56.4478 16.7679 56.5419 17.2815 56.5419C18.5401 56.5419 20.0832 55.9753 21.6887 54.0475C23.6469 51.7011 25.6726 49.4118 27.7632 47.1823C29.1195 47.9094 30.6096 48.3154 32.1336 48.3561C32.1366 48.396 32.1405 48.4358 32.1441 48.4753C31.8817 48.7878 31.6248 49.1047 31.3735 49.4261C30.3176 50.7649 30.0978 51.0437 26.6989 51.7426C25.732 51.942 23.1641 52.4706 23.1263 54.2684C23.0855 56.2328 26.1619 57.0578 26.5124 57.1453C27.7338 57.4507 28.9106 57.6013 30.0328 57.6013C32.762 57.6013 35.1638 56.7054 37.0832 54.9719C37.0241 61.9748 37.3164 68.8753 38.1583 70.9777C38.8479 72.6989 40.5322 76.9053 45.8527 76.905C46.6334 76.905 47.4926 76.8142 48.4379 76.6118C53.9908 75.423 56.4021 72.9717 57.3349 67.5676C57.834 64.6794 58.6906 57.7828 59.0936 54.0834C59.9438 54.3484 61.0384 54.4697 62.2218 54.4694C64.6898 54.4694 67.5378 53.9456 69.3237 53.1177C71.3301 52.187 74.9506 49.9034 74.294 47.9192ZM61.0705 22.9213C61.0522 24.0134 60.9017 25.0048 60.7422 26.0397C60.5704 27.1528 60.3929 28.3036 60.3483 29.7005C60.3042 31.06 60.4742 32.4734 60.6385 33.8404C60.9707 36.6013 61.3116 39.4436 59.9921 42.2483C59.7729 41.8604 59.5777 41.4595 59.4075 41.0478C59.2435 40.6507 58.8873 40.0129 58.3941 39.1301C56.4756 35.6936 51.9829 27.6463 54.2828 24.3625C54.9678 23.3851 56.7065 22.3802 61.0705 22.9213ZM55.7806 4.41924C62.1768 4.56028 67.2365 6.95018 70.8186 11.5222C73.5661 15.029 70.5407 30.9857 61.7823 44.7517C61.6942 44.6398 61.6056 44.5283 61.5166 44.4172L61.4057 44.2788C63.669 40.5456 63.2265 36.8519 62.8325 33.5771C62.6706 32.2332 62.5177 30.9639 62.5567 29.7715C62.5969 28.5078 62.7642 27.4238 62.9261 26.3757C63.1248 25.0842 63.3272 23.7477 63.2714 22.1723C63.3131 22.0071 63.3299 21.8118 63.308 21.58C63.1656 20.0693 61.4387 15.5479 57.9189 11.4557C55.9935 9.21731 53.1858 6.71242 49.3521 5.02293C51.001 4.68156 53.2559 4.36325 55.7806 4.41924ZM19.9897 52.6365C18.2208 54.7607 16.9993 54.3535 16.5976 54.2199C13.9802 53.3479 10.9431 47.8225 8.26552 39.0606C5.94857 31.4792 4.59462 23.8556 4.48729 21.7178C4.1491 14.9568 5.78997 10.245 9.36463 7.71288C15.1822 3.59246 24.7468 6.05872 28.5901 7.30952C28.5349 7.36402 28.4774 7.41493 28.4228 7.47032C22.1159 13.8318 22.2655 24.7006 22.2811 25.3651C22.2805 25.6214 22.3021 25.9843 22.3315 26.4835C22.44 28.3116 22.6421 31.714 22.1024 35.567C21.6012 39.1475 22.7063 42.6519 25.1338 45.182C25.383 45.4411 25.6448 45.6878 25.9185 45.921C24.8379 47.0769 22.4895 49.633 19.9897 52.6365ZM26.7291 43.6551C24.7726 41.6158 23.8839 38.7795 24.2908 35.8724C24.8604 31.8023 24.6503 28.2574 24.5372 26.353C24.5213 26.0864 24.5072 25.8529 24.4991 25.6687C25.4205 24.8527 29.6901 22.5679 32.735 23.2647C34.1243 23.5825 34.971 24.5275 35.323 26.1529C37.1446 34.5683 35.564 38.0758 34.294 40.8945C34.0323 41.4751 33.7849 42.024 33.5739 42.5917L33.4102 43.0307C32.9958 44.1405 32.6103 45.1724 32.3713 46.1522C30.2912 46.1462 28.2678 45.2586 26.7291 43.6548M27.0484 55.0039C26.441 54.8524 25.8948 54.5892 25.5743 54.3709C25.842 54.2451 26.3184 54.0738 27.1447 53.9037C31.1433 53.0817 31.7609 52.5014 33.1094 50.7912C33.4186 50.399 33.769 49.9546 34.2544 49.4132L34.255 49.4126C34.9779 48.6041 35.3086 48.7412 35.9082 48.9898C36.3942 49.1904 36.8676 49.7989 37.0595 50.4684C37.1503 50.7847 37.2523 51.3848 36.9186 51.8519C34.1015 55.7914 29.9965 55.7408 27.0484 55.0039ZM47.975 74.4537C43.0833 75.5005 41.3513 73.0076 40.2099 70.1578C39.4733 68.318 39.1111 60.0215 39.368 50.8592C39.3713 50.7374 39.3539 50.6197 39.3204 50.5089C39.2903 50.2901 39.2446 50.0737 39.1836 49.8615C38.8017 48.5283 37.8708 47.4132 36.754 46.9508C36.3102 46.7673 35.4959 46.4304 34.5174 46.6804C34.726 45.8216 35.0879 44.8517 35.4804 43.8015L35.645 43.3598C35.8302 42.8619 36.0629 42.3459 36.3087 41.7997C37.6378 38.8507 39.458 34.8115 37.4825 25.6864C36.7426 22.2685 34.2715 20.5993 30.5257 20.9871C28.2801 21.2192 26.2255 22.1241 25.2007 22.6431C24.9803 22.7545 24.7789 22.8623 24.5906 22.9671C24.8766 19.5234 25.9571 13.0877 29.9992 9.01578C32.5443 6.4525 35.9337 5.18643 40.0633 5.2547C48.2002 5.38766 53.4181 9.55838 56.3629 13.0341C58.9005 16.0289 60.2745 19.0458 60.8229 20.673C56.699 20.2541 53.8942 21.0671 52.4725 23.0973C49.3793 27.5136 54.1646 36.085 56.4645 40.2045C56.8863 40.9595 57.2503 41.612 57.3648 41.8892C58.1138 43.7021 59.0834 44.9125 59.7912 45.7958C60.0083 46.0666 60.2188 46.3292 60.3789 46.5585C59.1298 46.9182 56.8863 47.7492 57.0908 51.9028C56.9259 53.987 55.7534 63.7448 55.1576 67.1923C54.3712 71.747 52.6932 73.443 47.975 74.4537ZM68.3934 51.1162C67.1162 51.7082 64.9789 52.1522 62.9485 52.2478C60.7059 52.3526 59.5643 51.9968 59.2956 51.7779C59.1697 49.1895 60.1342 48.9191 61.1551 48.6328C61.3155 48.5879 61.472 48.5439 61.6231 48.4912C61.7169 48.5675 61.8197 48.6433 61.9325 48.7176C63.7349 49.9058 66.9498 50.0339 71.4887 49.0982L71.5385 49.0883C70.9262 49.6599 69.8787 50.4271 68.3934 51.1162Z" fill="white"/>
</g>
<defs>
<clipPath id="clip0_33_167">
<rect width="76.7519" height="79.0544" fill="white"/>
</clipPath>
</defs>
</svg>
