<svg width="78" height="69" viewBox="0 0 78 69" fill="none" xmlns="http://www.w3.org/2000/svg">
<g clip-path="url(#clip0_33_143)">
<path d="M38.552 41.4287C42.4048 41.4287 45.5281 38.2915 45.5281 34.4215C45.5281 30.5515 42.4048 27.4142 38.552 27.4142C34.6993 27.4142 31.576 30.5515 31.576 34.4215C31.576 38.2915 34.6993 41.4287 38.552 41.4287Z" fill="#61DAFB"/>
<path d="M65.0489 22.8657C63.7027 22.3739 62.2952 21.8822 60.8266 21.4519C61.1937 19.9767 61.4997 18.5015 61.7445 17.0878C63.0295 8.97416 61.6221 3.25774 57.7057 1.04493C56.543 0.368797 55.2579 0.0614624 53.7893 0.0614624C49.5057 0.0614624 44.0595 3.25774 38.5521 8.60536C33.0446 3.25774 27.5984 0.0614624 23.3148 0.0614624C21.8462 0.0614624 20.5611 0.368797 19.3984 1.04493C15.482 3.31921 14.0746 9.03563 15.3596 17.0878C15.6044 18.5015 15.9104 19.9767 16.2775 21.4519C14.8089 21.8822 13.4014 22.3125 12.0552 22.8657C4.40596 25.8161 0.244781 29.8729 0.244781 34.4215C0.244781 38.97 4.46715 43.0268 12.0552 45.9772C13.4014 46.469 14.8089 46.9607 16.2775 47.391C15.9104 48.8662 15.6044 50.3414 15.3596 51.7551C14.0746 59.8688 15.482 65.5852 19.3984 67.798C20.5611 68.4741 21.8462 68.7815 23.3148 68.7815C27.6596 68.7815 33.1058 65.5852 38.5521 60.2376C44.0595 65.5852 49.5057 68.7815 53.7893 68.7815C55.2579 68.7815 56.543 68.4741 57.7057 67.798C61.6221 65.5237 63.0295 59.8073 61.7445 51.7551C61.4997 50.3414 61.1937 48.8662 60.8266 47.391C62.2952 46.9607 63.7027 46.5304 65.0489 45.9772C72.6982 43.0268 76.8593 38.97 76.8593 34.4215C76.8593 29.8729 72.6982 25.8161 65.0489 22.8657ZM55.9923 4.11828C58.5012 5.59348 59.3579 10.142 58.3176 16.5961C58.134 17.8869 57.8281 19.2391 57.4609 20.6529C54.2788 19.9153 50.9132 19.4235 47.3639 19.1162C45.2834 16.1658 43.1416 13.5227 40.9998 11.1255C45.5281 6.63842 50.1177 3.56508 53.8505 3.56508C54.646 3.56508 55.3803 3.74948 55.9923 4.11828ZM49.1386 40.5682C48.0371 42.5351 46.752 44.502 45.4057 46.469C43.1416 46.6534 40.8774 46.7148 38.5521 46.7148C36.1655 46.7148 33.9013 46.6534 31.6984 46.469C30.3521 44.502 29.1282 42.5351 28.0267 40.5682C26.864 38.5397 25.7626 36.4499 24.7835 34.4215C25.7626 32.3931 26.864 30.3032 28.0267 28.2748C29.1282 26.3078 30.4133 24.3409 31.7595 22.3739C34.0237 22.1895 36.2879 22.1281 38.6132 22.1281C40.9998 22.1281 43.264 22.1895 45.4669 22.3739C46.8132 24.3409 48.0371 26.3078 49.1386 28.2748C50.3012 30.3032 51.4027 32.3931 52.3818 34.4215C51.3415 36.4499 50.3012 38.4783 49.1386 40.5682ZM54.2176 38.5397C55.1355 40.6911 55.8699 42.781 56.543 44.8708C54.4624 45.3626 52.2594 45.7314 49.9341 46.0387C50.6684 44.8708 51.4639 43.6415 52.1371 42.3507C52.8714 41.0599 53.5445 39.7691 54.2176 38.5397ZM38.5521 55.1973C37.0834 53.5991 35.6759 51.8781 34.3297 50.0955C35.7371 50.157 37.1446 50.2185 38.5521 50.2185C39.9595 50.2185 41.367 50.157 42.7744 50.0955C41.4282 51.8781 40.0207 53.5991 38.5521 55.1973ZM27.17 45.9772C24.8447 45.6699 22.6417 45.3011 20.5611 44.8094C21.2342 42.781 21.9686 40.6296 22.8865 38.4783C23.5596 39.7076 24.2327 40.9984 24.967 42.2278C25.7014 43.58 26.4357 44.7479 27.17 45.9772ZM22.8865 30.3032C21.9686 28.1518 21.2342 26.062 20.5611 23.9721C22.6417 23.4804 24.8447 23.1116 27.17 22.8042C26.4357 23.9721 25.6402 25.2014 24.967 26.4922C24.2327 27.783 23.5596 29.0738 22.8865 30.3032ZM38.5521 13.6456C40.0207 15.2438 41.4282 16.9649 42.7744 18.7474C41.367 18.6859 39.9595 18.6245 38.5521 18.6245C37.1446 18.6245 35.7371 18.6859 34.3297 18.7474C35.6759 16.9649 37.0834 15.2438 38.5521 13.6456ZM52.1371 26.5537L49.9341 22.8657C52.2594 23.173 54.4624 23.5418 56.543 24.0336C55.8699 26.062 55.1355 28.2133 54.2176 30.3646C53.5445 29.0738 52.8714 27.783 52.1371 26.5537ZM18.7865 16.5961C17.7462 10.142 18.6029 5.59348 21.1118 4.11828C21.7238 3.74948 22.4581 3.56508 23.2536 3.56508C26.9252 3.56508 31.5148 6.57695 36.1043 11.1255C33.9625 13.4612 31.8207 16.1658 29.7402 19.1162C26.1909 19.4235 22.8253 19.9767 19.6432 20.6529C19.276 19.2391 19.0313 17.8869 18.7865 16.5961ZM3.67163 34.4215C3.67163 31.5325 7.15967 28.4592 13.279 26.1849C14.5029 25.6932 15.8492 25.2629 17.1954 24.8941C18.1745 27.9674 19.3984 31.2252 20.8671 34.4829C19.3984 37.7407 18.1133 40.937 17.1954 44.0103C8.75071 41.5516 3.67163 37.8636 3.67163 34.4215ZM21.1118 64.7246C18.6029 63.2494 17.7462 58.7009 18.7865 52.2469C18.9701 50.9561 19.276 49.6038 19.6432 48.19C22.8253 48.9277 26.1909 49.4194 29.7402 49.7267C31.8207 52.6771 33.9625 55.3202 36.1043 57.7174C31.576 62.2045 26.9864 65.2778 23.2536 65.2778C22.4581 65.2778 21.7238 65.0934 21.1118 64.7246ZM58.3176 52.2469C59.3579 58.7009 58.5012 63.2494 55.9923 64.7246C55.3803 65.0934 54.646 65.2778 53.8505 65.2778C50.1789 65.2778 45.5893 62.266 40.9998 57.7174C43.1416 55.3817 45.2834 52.6771 47.3639 49.7267C50.9132 49.4194 54.2788 48.8662 57.4609 48.19C57.8281 49.6038 58.0728 50.9561 58.3176 52.2469ZM63.8251 42.658C62.6012 43.1498 61.2549 43.58 59.9087 43.9488C58.9296 40.8755 57.7057 37.6177 56.237 34.36C57.7057 31.1022 58.9908 27.906 59.9087 24.8326C68.3534 27.2913 73.4325 30.9793 73.4325 34.4215C73.4325 37.3104 69.8832 40.3838 63.8251 42.658Z" fill="#61DAFB"/>
</g>
<defs>
<clipPath id="clip0_33_143">
<rect width="77.1041" height="68.8429" fill="white"/>
</clipPath>
</defs>
</svg>
