<svg width="26" height="22" viewBox="0 0 26 22" fill="none" xmlns="http://www.w3.org/2000/svg">
<path fill-rule="evenodd" clip-rule="evenodd" d="M22.7212 0.537487C23.0301 0.407476 23.3682 0.362636 23.7004 0.407633C24.0325 0.452631 24.3464 0.585822 24.6096 0.793343C24.8728 1.00086 25.0755 1.27513 25.1967 1.58759C25.3179 1.90005 25.3531 2.23929 25.2987 2.56999L22.4637 19.7662C22.1887 21.425 20.3687 22.3762 18.8475 21.55C17.575 20.8587 15.685 19.7937 13.985 18.6825C13.135 18.1262 10.5312 16.345 10.8512 15.0775C11.1262 13.9937 15.5012 9.92124 18.0012 7.49999C18.9825 6.54874 18.535 5.99999 17.3762 6.87499C14.4987 9.04749 9.87874 12.3512 8.35124 13.2812C7.00374 14.1012 6.30124 14.2412 5.46124 14.1012C3.92874 13.8462 2.50749 13.4512 1.34749 12.97C-0.220006 12.32 -0.143756 10.165 1.34624 9.53749L22.7212 0.537487Z" fill="#CECECE"/>
</svg>
