<svg width="26" height="26" viewBox="0 0 26 26" fill="none" xmlns="http://www.w3.org/2000/svg">
<path fill-rule="evenodd" clip-rule="evenodd" d="M13 0.5C6.09625 0.5 0.5 6.09625 0.5 13C0.5 15.3625 1.15625 17.575 2.2975 19.46L1.1825 23.25C1.11848 23.4676 1.11427 23.6984 1.17031 23.9182C1.22634 24.138 1.34056 24.3387 1.50095 24.4991C1.66134 24.6594 1.86198 24.7737 2.08177 24.8297C2.30156 24.8857 2.5324 24.8815 2.75 24.8175L6.54 23.7025C8.48835 24.8814 10.7228 25.5031 13 25.5C19.9037 25.5 25.5 19.9037 25.5 13C25.5 6.09625 19.9037 0.5 13 0.5ZM10.1725 15.8287C12.7013 18.3562 15.115 18.69 15.9675 18.7212C17.2638 18.7687 18.5262 17.7787 19.0175 16.63C19.0795 16.4871 19.102 16.3302 19.0827 16.1756C19.0633 16.021 19.0028 15.8745 18.9075 15.7513C18.2225 14.8763 17.2962 14.2475 16.3913 13.6225C16.2023 13.4919 15.9701 13.4394 15.7433 13.4763C15.5166 13.5131 15.3129 13.6363 15.175 13.82L14.425 14.9637C14.3856 15.0252 14.3241 15.0693 14.2532 15.087C14.1824 15.1047 14.1074 15.0945 14.0437 15.0588C13.535 14.7675 12.7938 14.2725 12.2613 13.74C11.7288 13.2075 11.2638 12.5 11.0025 12.0238C10.9701 11.9632 10.9607 11.893 10.9761 11.8262C10.9915 11.7593 11.0307 11.7003 11.0863 11.66L12.2412 10.8025C12.4061 10.6592 12.5125 10.4602 12.5401 10.2436C12.5678 10.0269 12.5148 9.80763 12.3912 9.6275C11.8312 8.8075 11.1788 7.765 10.2325 7.07375C10.1104 6.98525 9.96733 6.93007 9.81742 6.91364C9.6675 6.8972 9.51589 6.92007 9.3775 6.98C8.2275 7.4725 7.2325 8.735 7.28 10.0337C7.31125 10.8862 7.645 13.3 10.1725 15.8287Z" fill="#CECECE"/>
</svg>
